<svg width="481" height="481" viewBox="0 0 481 481" fill="none" xmlns="http://www.w3.org/2000/svg">
<rect width="481" height="481" fill="white"/>
<circle cx="240.5" cy="151.508" r="43" stroke="black"/>
<line x1="241.5" y1="195.008" x2="241.5" y2="298.008" stroke="black"/>
<line x1="241.005" y1="195.734" x2="197.415" y2="260.417" stroke="black"/>
<line x1="241.005" y1="195.175" x2="284.596" y2="259.859" stroke="black"/>
<line x1="240.974" y1="298.269" x2="197.383" y2="350.297" stroke="black"/>
<line x1="240.974" y1="297.627" x2="284.565" y2="349.655" stroke="black"/>
<mask id="path-7-outside-1_348_364" maskUnits="userSpaceOnUse" x="216.571" y="120.211" width="48.7978" height="60.9273" fill="black">
<rect fill="white" x="216.571" y="120.211" width="48.7978" height="60.9273"/>
<path d="M233.435 158.94L233.533 158.685C234.593 155.993 235.698 153.949 236.846 152.555C237.995 151.161 239.253 150.157 240.623 149.545C241.992 148.932 243.529 148.473 245.235 148.167C246.265 147.977 247.245 147.661 248.175 147.222C249.11 146.768 249.945 146.154 250.678 145.38C251.426 144.611 252.013 143.667 252.44 142.549C252.97 141.162 253.103 139.835 252.841 138.567C252.579 137.299 252.008 136.181 251.129 135.213C250.25 134.245 249.145 133.507 247.815 132.999C246.654 132.556 245.444 132.37 244.184 132.44C242.925 132.511 241.737 132.925 240.62 133.683C239.504 134.44 238.57 135.633 237.819 137.26L232.469 135.217C233.501 132.854 234.91 131.032 236.696 129.752C238.496 128.477 240.504 127.743 242.718 127.55C244.947 127.363 247.207 127.707 249.501 128.582C251.992 129.534 253.968 130.856 255.43 132.549C256.906 134.248 257.817 136.152 258.163 138.263C258.523 140.379 258.282 142.541 257.439 144.749C256.844 146.306 256.066 147.623 255.104 148.699C254.156 149.781 253.047 150.647 251.777 151.297C250.521 151.953 249.124 152.425 247.587 152.714C246.044 153.017 244.732 153.457 243.652 154.034C242.578 154.597 241.647 155.401 240.858 156.446C240.07 157.491 239.327 158.886 238.629 160.631L238.531 160.885L233.435 158.94ZM231.355 172.547C230.307 172.148 229.552 171.429 229.088 170.393C228.624 169.356 228.592 168.314 228.992 167.267C229.392 166.219 230.11 165.463 231.147 165C232.183 164.536 233.225 164.504 234.273 164.904C235.32 165.304 236.076 166.022 236.54 167.058C237.004 168.095 237.036 169.137 236.636 170.185C236.371 170.878 235.951 171.448 235.375 171.893C234.814 172.344 234.176 172.635 233.46 172.767C232.764 172.891 232.063 172.818 231.355 172.547Z"/>
</mask>
<path d="M233.435 158.94L231.567 158.227L230.854 160.095L232.722 160.809L233.435 158.94ZM233.533 158.685L231.672 157.953L231.668 157.962L231.664 157.972L233.533 158.685ZM236.846 152.555L235.302 151.283L235.302 151.283L236.846 152.555ZM240.623 149.545L241.439 151.37L241.439 151.37L240.623 149.545ZM245.235 148.167L245.588 150.136L245.6 150.134L245.235 148.167ZM248.175 147.222L249.03 149.03L249.039 149.026L249.048 149.021L248.175 147.222ZM250.678 145.38L249.244 143.985L249.235 143.995L249.226 144.004L250.678 145.38ZM244.184 132.44L244.072 130.443L244.072 130.443L244.184 132.44ZM240.62 133.683L241.744 135.337L241.744 135.337L240.62 133.683ZM237.819 137.26L237.106 139.128L238.852 139.795L239.635 138.098L237.819 137.26ZM232.469 135.217L230.636 134.417L229.797 136.338L231.756 137.086L232.469 135.217ZM236.696 129.752L235.54 128.12L235.531 128.126L236.696 129.752ZM242.718 127.55L242.551 125.557L242.545 125.558L242.718 127.55ZM255.43 132.549L253.916 133.856L253.921 133.861L255.43 132.549ZM258.163 138.263L256.189 138.586L256.191 138.598L258.163 138.263ZM255.104 148.699L253.613 147.366L253.606 147.373L253.6 147.381L255.104 148.699ZM251.777 151.297L250.865 149.517L250.858 149.52L250.851 149.524L251.777 151.297ZM247.587 152.714L247.217 150.748L247.209 150.75L247.201 150.751L247.587 152.714ZM243.652 154.034L244.581 155.806L244.588 155.802L244.595 155.798L243.652 154.034ZM238.629 160.631L236.772 159.887L236.766 159.902L236.76 159.917L238.629 160.631ZM238.531 160.885L237.818 162.754L239.686 163.467L240.4 161.599L238.531 160.885ZM229.088 170.393L230.913 169.576L230.913 169.576L229.088 170.393ZM231.147 165L231.963 166.825L231.963 166.825L231.147 165ZM235.375 171.893L234.151 170.311L234.137 170.322L234.123 170.333L235.375 171.893ZM233.46 172.767L233.81 174.737L233.817 174.735L233.824 174.734L233.46 172.767ZM235.304 159.653L235.401 159.399L231.664 157.972L231.567 158.227L235.304 159.653ZM235.394 159.418C236.418 156.818 237.43 154.991 238.39 153.826L235.302 151.283C233.965 152.907 232.769 155.167 231.672 157.953L235.394 159.418ZM238.39 153.826C239.382 152.622 240.404 151.834 241.439 151.37L239.806 147.719C238.103 148.481 236.608 149.699 235.302 151.283L238.39 153.826ZM241.439 151.37C242.639 150.833 244.018 150.417 245.588 150.136L244.883 146.199C243.041 146.529 241.344 147.031 239.806 147.719L241.439 151.37ZM245.6 150.134C246.796 149.912 247.941 149.545 249.03 149.03L247.32 145.414C246.549 145.778 245.734 146.041 244.871 146.201L245.6 150.134ZM249.048 149.021C250.206 148.459 251.235 147.7 252.13 146.755L249.226 144.004C248.654 144.608 248.015 145.076 247.302 145.422L249.048 149.021ZM252.112 146.774C253.07 145.789 253.796 144.605 254.308 143.263L250.571 141.836C250.23 142.73 249.781 143.433 249.244 143.985L252.112 146.774ZM254.308 143.263C254.954 141.573 255.15 139.856 254.8 138.162L250.883 138.972C251.057 139.813 250.985 140.752 250.571 141.836L254.308 143.263ZM254.8 138.162C254.465 136.54 253.727 135.099 252.61 133.868L249.649 136.558C250.29 137.264 250.694 138.058 250.883 138.972L254.8 138.162ZM252.61 133.868C251.501 132.648 250.125 131.74 248.528 131.13L247.101 134.867C248.165 135.273 248.999 135.842 249.649 136.558L252.61 133.868ZM248.528 131.13C247.1 130.585 245.608 130.357 244.072 130.443L244.296 134.437C245.279 134.382 246.208 134.526 247.101 134.867L248.528 131.13ZM244.072 130.443C242.426 130.536 240.892 131.081 239.497 132.028L241.744 135.337C242.582 134.769 243.424 134.486 244.296 134.437L244.072 130.443ZM239.497 132.028C237.997 133.046 236.858 134.57 236.004 136.422L239.635 138.098C240.283 136.696 241.011 135.834 241.744 135.337L239.497 132.028ZM238.533 135.391L233.182 133.349L231.756 137.086L237.106 139.128L238.533 135.391ZM234.302 136.018C235.215 133.927 236.415 132.414 237.861 131.377L235.531 128.126C233.404 129.651 231.787 131.781 230.636 134.417L234.302 136.018ZM237.852 131.384C239.36 130.316 241.028 129.705 242.891 129.543L242.545 125.558C239.98 125.781 237.633 126.638 235.54 128.12L237.852 131.384ZM242.886 129.543C244.787 129.383 246.747 129.672 248.787 130.451L250.214 126.714C247.668 125.742 245.107 125.342 242.551 125.557L242.886 129.543ZM248.787 130.451C251.029 131.307 252.709 132.457 253.917 133.856L256.944 131.242C255.228 129.254 252.955 127.76 250.214 126.714L248.787 130.451ZM253.921 133.861C255.167 135.295 255.907 136.861 256.189 138.586L260.137 137.94C259.728 135.443 258.646 133.201 256.94 131.237L253.921 133.861ZM256.191 138.598C256.485 140.327 256.299 142.127 255.57 144.036L259.307 145.463C260.264 142.955 260.561 140.431 260.135 137.928L256.191 138.598ZM255.57 144.036C255.049 145.4 254.389 146.498 253.613 147.366L256.595 150.032C257.742 148.748 258.639 147.213 259.307 145.463L255.57 144.036ZM253.6 147.381C252.817 148.274 251.908 148.982 250.865 149.517L252.688 153.077C254.185 152.311 255.494 151.287 256.608 150.017L253.6 147.381ZM250.851 149.524C249.787 150.08 248.581 150.492 247.217 150.748L247.956 154.68C249.667 154.358 251.254 153.826 252.702 153.07L250.851 149.524ZM247.201 150.751C245.516 151.082 244.006 151.577 242.71 152.27L244.595 155.798C245.459 155.337 246.571 154.952 247.972 154.676L247.201 150.751ZM242.724 152.263C241.367 152.973 240.214 153.98 239.262 155.242L242.455 157.65C243.08 156.823 243.789 156.221 244.581 155.806L242.724 152.263ZM239.262 155.242C238.332 156.475 237.51 158.043 236.772 159.887L240.485 161.374C241.144 159.729 241.809 158.508 242.455 157.65L239.262 155.242ZM236.76 159.917L236.663 160.172L240.4 161.599L240.497 161.344L236.76 159.917ZM239.245 159.017L234.149 157.072L232.722 160.809L237.818 162.754L239.245 159.017ZM232.068 170.679C231.523 170.471 231.164 170.135 230.913 169.576L227.262 171.21C227.94 172.723 229.091 173.824 230.641 174.416L232.068 170.679ZM230.913 169.576C230.663 169.016 230.652 168.525 230.86 167.98L227.123 166.553C226.532 168.103 226.585 169.696 227.262 171.21L230.913 169.576ZM230.86 167.98C231.068 167.435 231.404 167.076 231.963 166.825L230.33 163.174C228.816 163.851 227.715 165.003 227.123 166.553L230.86 167.98ZM231.963 166.825C232.523 166.575 233.015 166.564 233.559 166.772L234.986 163.035C233.436 162.443 231.844 162.497 230.33 163.174L231.963 166.825ZM233.559 166.772C234.104 166.98 234.464 167.316 234.714 167.875L238.365 166.242C237.688 164.728 236.536 163.627 234.986 163.035L233.559 166.772ZM234.714 167.875C234.964 168.435 234.975 168.926 234.767 169.471L238.504 170.898C239.096 169.348 239.043 167.755 238.365 166.242L234.714 167.875ZM234.767 169.471C234.631 169.829 234.43 170.095 234.151 170.311L236.599 173.475C237.471 172.8 238.111 171.927 238.504 170.898L234.767 169.471ZM234.123 170.333C233.823 170.575 233.49 170.728 233.096 170.801L233.824 174.734C234.861 174.542 235.805 174.112 236.628 173.452L234.123 170.333ZM233.111 170.798C232.797 170.854 232.462 170.83 232.068 170.679L230.641 174.416C231.663 174.806 232.731 174.928 233.81 174.737L233.111 170.798Z" fill="black" mask="url(#path-7-outside-1_348_364)"/>
<rect x="26.5" y="29.5" width="140" height="66" stroke="black"/>
<rect x="318.5" y="29.5" width="140" height="66" stroke="black"/>
<rect x="318.5" y="382.5" width="140" height="66" stroke="black"/>
<rect x="23.5" y="382.5" width="140" height="66" stroke="black"/>
<rect x="13.5" y="17.5" width="166" height="12" fill="#D9D9D9" stroke="black"/>
<rect x="305.5" y="17.5" width="166" height="12" fill="#D9D9D9" stroke="black"/>
<rect x="305.5" y="370.5" width="166" height="12" fill="#D9D9D9" stroke="black"/>
<rect x="10.5" y="370.5" width="166" height="12" fill="#D9D9D9" stroke="black"/>
<path d="M51.321 80V45.0909H63.1165C65.8438 45.0909 68.0824 45.5568 69.8324 46.4886C71.5824 47.4091 72.8778 48.6761 73.7188 50.2898C74.5597 51.9034 74.9801 53.7386 74.9801 55.7955C74.9801 57.8523 74.5597 59.6761 73.7188 61.267C72.8778 62.858 71.5881 64.108 69.8494 65.017C68.1108 65.9148 65.8892 66.3636 63.1847 66.3636H53.6392V62.5455H63.0483C64.9119 62.5455 66.4119 62.2727 67.5483 61.7273C68.696 61.1818 69.5256 60.4091 70.0369 59.4091C70.5597 58.3977 70.821 57.1932 70.821 55.7955C70.821 54.3977 70.5597 53.1761 70.0369 52.1307C69.5142 51.0852 68.679 50.2784 67.5312 49.7102C66.3835 49.1307 64.8665 48.8409 62.9801 48.8409H55.5483V80H51.321ZM67.7528 64.3182L76.3438 80H71.4347L62.9801 64.3182H67.7528ZM86.2514 45.0909V80H82.0241V45.0909H86.2514ZM94.7273 45.0909H99.7727L111.636 74.0682H112.045L123.909 45.0909H128.955V80H125V53.4773H124.659L113.75 80H109.932L99.0227 53.4773H98.6818V80H94.7273V45.0909ZM141.658 45.0909V80H137.43V45.0909H141.658Z" fill="#E42D2D"/>
<path d="M357.717 58H354.194C353.986 56.9867 353.621 56.0966 353.1 55.3295C352.589 54.5625 351.964 53.9186 351.225 53.3977C350.496 52.8674 349.687 52.4697 348.797 52.2045C347.906 51.9394 346.978 51.8068 346.012 51.8068C344.251 51.8068 342.655 52.2519 341.225 53.142C339.805 54.0322 338.673 55.3438 337.831 57.0767C336.997 58.8097 336.581 60.9356 336.581 63.4545C336.581 65.9735 336.997 68.0994 337.831 69.8324C338.673 71.5653 339.805 72.8769 341.225 73.767C342.655 74.6572 344.251 75.1023 346.012 75.1023C346.978 75.1023 347.906 74.9697 348.797 74.7045C349.687 74.4394 350.496 74.0464 351.225 73.5256C351.964 72.9953 352.589 72.3466 353.1 71.5795C353.621 70.803 353.986 69.9129 354.194 68.9091H357.717C357.452 70.3958 356.969 71.7263 356.268 72.9006C355.567 74.0748 354.696 75.0739 353.654 75.8977C352.613 76.7121 351.443 77.3324 350.146 77.7585C348.858 78.1847 347.48 78.3977 346.012 78.3977C343.531 78.3977 341.325 77.7917 339.393 76.5795C337.461 75.3674 335.941 73.6439 334.833 71.4091C333.725 69.1742 333.172 66.5227 333.172 63.4545C333.172 60.3864 333.725 57.7348 334.833 55.5C335.941 53.2652 337.461 51.5417 339.393 50.3295C341.325 49.1174 343.531 48.5114 346.012 48.5114C347.48 48.5114 348.858 48.7244 350.146 49.1506C351.443 49.5767 352.613 50.2017 353.654 51.0256C354.696 51.84 355.567 52.8343 356.268 54.0085C356.969 55.1733 357.452 56.5038 357.717 58ZM387.955 63.4545C387.955 66.5227 387.401 69.1742 386.293 71.4091C385.185 73.6439 383.665 75.3674 381.733 76.5795C379.801 77.7917 377.595 78.3977 375.114 78.3977C372.633 78.3977 370.426 77.7917 368.495 76.5795C366.563 75.3674 365.043 73.6439 363.935 71.4091C362.827 69.1742 362.273 66.5227 362.273 63.4545C362.273 60.3864 362.827 57.7348 363.935 55.5C365.043 53.2652 366.563 51.5417 368.495 50.3295C370.426 49.1174 372.633 48.5114 375.114 48.5114C377.595 48.5114 379.801 49.1174 381.733 50.3295C383.665 51.5417 385.185 53.2652 386.293 55.5C387.401 57.7348 387.955 60.3864 387.955 63.4545ZM384.546 63.4545C384.546 60.9356 384.124 58.8097 383.282 57.0767C382.448 55.3438 381.317 54.0322 379.887 53.142C378.466 52.2519 376.875 51.8068 375.114 51.8068C373.353 51.8068 371.757 52.2519 370.327 53.142C368.907 54.0322 367.775 55.3438 366.932 57.0767C366.099 58.8097 365.682 60.9356 365.682 63.4545C365.682 65.9735 366.099 68.0994 366.932 69.8324C367.775 71.5653 368.907 72.8769 370.327 73.767C371.757 74.6572 373.353 75.1023 375.114 75.1023C376.875 75.1023 378.466 74.6572 379.887 73.767C381.317 72.8769 382.448 71.5653 383.282 69.8324C384.124 68.0994 384.546 65.9735 384.546 63.4545ZM418.424 63.4545C418.424 66.5227 417.87 69.1742 416.762 71.4091C415.654 73.6439 414.134 75.3674 412.202 76.5795C410.27 77.7917 408.064 78.3977 405.583 78.3977C403.102 78.3977 400.895 77.7917 398.963 76.5795C397.032 75.3674 395.512 73.6439 394.404 71.4091C393.296 69.1742 392.742 66.5227 392.742 63.4545C392.742 60.3864 393.296 57.7348 394.404 55.5C395.512 53.2652 397.032 51.5417 398.963 50.3295C400.895 49.1174 403.102 48.5114 405.583 48.5114C408.064 48.5114 410.27 49.1174 412.202 50.3295C414.134 51.5417 415.654 53.2652 416.762 55.5C417.87 57.7348 418.424 60.3864 418.424 63.4545ZM415.015 63.4545C415.015 60.9356 414.593 58.8097 413.75 57.0767C412.917 55.3438 411.785 54.0322 410.355 53.142C408.935 52.2519 407.344 51.8068 405.583 51.8068C403.821 51.8068 402.226 52.2519 400.796 53.142C399.375 54.0322 398.244 55.3438 397.401 57.0767C396.568 58.8097 396.151 60.9356 396.151 63.4545C396.151 65.9735 396.568 68.0994 397.401 69.8324C398.244 71.5653 399.375 72.8769 400.796 73.767C402.226 74.6572 403.821 75.1023 405.583 75.1023C407.344 75.1023 408.935 74.6572 410.355 73.767C411.785 72.8769 412.917 71.5653 413.75 69.8324C414.593 68.0994 415.015 65.9735 415.015 63.4545ZM424.347 78V48.9091H434.176C436.459 48.9091 438.324 49.321 439.773 50.1449C441.231 50.9593 442.311 52.0625 443.012 53.4545C443.712 54.8466 444.063 56.3996 444.063 58.1136C444.063 59.8277 443.712 61.3854 443.012 62.7869C442.32 64.1884 441.25 65.3059 439.801 66.1392C438.353 66.9631 436.497 67.375 434.233 67.375H427.188V64.25H434.12C435.682 64.25 436.937 63.9801 437.884 63.4403C438.831 62.9006 439.517 62.1714 439.944 61.2528C440.379 60.3248 440.597 59.2784 440.597 58.1136C440.597 56.9489 440.379 55.9072 439.944 54.9886C439.517 54.0701 438.826 53.3504 437.87 52.8295C436.913 52.2992 435.644 52.0341 434.063 52.0341H427.87V78H424.347Z" fill="#4E87FA"/>
<path d="M326.724 404.727H330.088L337.997 424.045H338.27L346.179 404.727H349.543V428H346.906V410.318H346.679L339.406 428H336.861L329.588 410.318H329.361V428H326.724V404.727ZM356.148 428H353.193L361.739 404.727H364.648L373.193 428H370.239L363.284 408.409H363.102L356.148 428ZM357.239 418.909H369.148V421.409H357.239V418.909ZM400.168 404.727V428H397.349V404.727H400.168ZM405.818 404.727H409.182L417.091 424.045H417.364L425.273 404.727H428.636V428H426V410.318H425.773L418.5 428H415.955L408.682 410.318H408.455V428H405.818V404.727ZM435.241 428H432.287L440.832 404.727H443.741L452.287 428H449.332L442.378 408.409H442.196L435.241 428ZM436.332 418.909H448.241V421.409H436.332V418.909Z" fill="#E42D2D"/>
<path d="M378.182 404.727L384.182 414.409H384.364L390.364 404.727H393.682L386.364 416.364L393.682 428H390.364L384.364 418.5H384.182L378.182 428H374.864L382.364 416.364L374.864 404.727H378.182Z" fill="#4E2DE4"/>
<path d="M50.7642 410.545C50.6278 409.394 50.0748 408.5 49.1051 407.864C48.1354 407.227 46.946 406.909 45.5369 406.909C44.5066 406.909 43.6051 407.076 42.8324 407.409C42.0672 407.742 41.4688 408.201 41.0369 408.784C40.6127 409.367 40.4006 410.03 40.4006 410.773C40.4006 411.394 40.5483 411.928 40.8438 412.375C41.1468 412.814 41.5331 413.182 42.0028 413.477C42.4725 413.765 42.965 414.004 43.4801 414.193C43.9953 414.375 44.4688 414.523 44.9006 414.636L47.2642 415.273C47.8703 415.432 48.5445 415.652 49.2869 415.932C50.0369 416.212 50.7528 416.595 51.4347 417.08C52.1241 417.557 52.6922 418.17 53.1392 418.92C53.5862 419.67 53.8097 420.591 53.8097 421.682C53.8097 422.939 53.4801 424.076 52.821 425.091C52.1695 426.106 51.215 426.913 49.9574 427.511C48.7074 428.11 47.1884 428.409 45.4006 428.409C43.7339 428.409 42.2907 428.14 41.071 427.602C39.8589 427.064 38.9044 426.314 38.2074 425.352C37.518 424.39 37.1278 423.273 37.0369 422H39.946C40.0218 422.879 40.3172 423.606 40.8324 424.182C41.3551 424.75 42.0142 425.174 42.8097 425.455C43.6127 425.727 44.4763 425.864 45.4006 425.864C46.4763 425.864 47.4422 425.689 48.2983 425.341C49.1544 424.985 49.8324 424.492 50.3324 423.864C50.8324 423.227 51.0824 422.485 51.0824 421.636C51.0824 420.864 50.8665 420.235 50.4347 419.75C50.0028 419.265 49.4347 418.871 48.7301 418.568C48.0256 418.265 47.2642 418 46.446 417.773L43.5824 416.955C41.7642 416.432 40.3248 415.686 39.2642 414.716C38.2036 413.746 37.6733 412.477 37.6733 410.909C37.6733 409.606 38.0256 408.47 38.7301 407.5C39.4422 406.523 40.3968 405.765 41.5938 405.227C42.7983 404.682 44.143 404.409 45.6278 404.409C47.1278 404.409 48.4612 404.678 49.6278 405.216C50.7945 405.746 51.7188 406.473 52.4006 407.398C53.09 408.322 53.4536 409.371 53.4915 410.545H50.7642ZM58.4432 428V404.727H72.4886V407.227H61.2614V415.091H71.7614V417.591H61.2614V425.5H72.6705V428H58.4432ZM77.5682 428V404.727H80.3864V425.5H91.2045V428H77.5682ZM94.3352 404.727L101.244 424.318H101.517L108.426 404.727H111.381L102.835 428H99.9261L91.3807 404.727H94.3352ZM115.006 428V404.727H129.051V407.227H117.824V415.091H128.324V417.591H117.824V425.5H129.233V428H115.006ZM134.131 428V404.727H141.994C143.813 404.727 145.305 405.038 146.472 405.659C147.638 406.273 148.502 407.117 149.062 408.193C149.623 409.269 149.903 410.492 149.903 411.864C149.903 413.235 149.623 414.451 149.062 415.511C148.502 416.572 147.642 417.405 146.483 418.011C145.324 418.61 143.843 418.909 142.04 418.909H135.676V416.364H141.949C143.191 416.364 144.191 416.182 144.949 415.818C145.714 415.455 146.267 414.939 146.608 414.273C146.956 413.598 147.131 412.795 147.131 411.864C147.131 410.932 146.956 410.117 146.608 409.42C146.259 408.723 145.703 408.186 144.938 407.807C144.172 407.42 143.161 407.227 141.903 407.227H136.949V428H134.131ZM145.085 417.545L150.812 428H147.54L141.903 417.545H145.085Z" fill="#FFC20E"/>
<path d="M160.036 108.001C159.484 107.981 159.02 108.412 159.001 108.964L158.679 117.959C158.66 118.511 159.091 118.974 159.643 118.994C160.195 119.013 160.658 118.582 160.678 118.03L160.964 110.035L168.959 110.321C169.511 110.34 169.974 109.909 169.994 109.357C170.013 108.805 169.582 108.342 169.03 108.322L160.036 108.001ZM187.732 137.319L160.732 108.319L159.268 109.681L186.268 138.681L187.732 137.319Z" fill="black"/>
<path d="M318.992 108.126C319.062 107.578 318.674 107.078 318.126 107.008L309.198 105.872C308.65 105.802 308.15 106.19 308.08 106.737C308.01 107.285 308.398 107.786 308.946 107.856L316.882 108.866L315.872 116.802C315.802 117.35 316.19 117.85 316.737 117.92C317.285 117.99 317.786 117.602 317.856 117.054L318.992 108.126ZM287.612 132.791L318.612 108.791L317.388 107.209L286.388 131.209L287.612 132.791Z" fill="black"/>
<path d="M186.038 416.275C186.19 416.806 186.744 417.113 187.275 416.962L195.928 414.489C196.459 414.337 196.767 413.784 196.615 413.253C196.464 412.722 195.91 412.414 195.379 412.566L187.687 414.764L185.489 407.072C185.337 406.541 184.784 406.233 184.253 406.385C183.722 406.536 183.414 407.09 183.566 407.621L186.038 416.275ZM226.126 343.514L186.126 415.514L187.874 416.486L227.874 344.486L226.126 343.514Z" fill="black"/>
<path d="M304.832 416.986C305.376 417.079 305.893 416.713 305.986 416.168L307.5 407.297C307.593 406.752 307.227 406.236 306.683 406.143C306.139 406.05 305.622 406.416 305.529 406.96L304.183 414.846L296.297 413.5C295.752 413.407 295.236 413.773 295.143 414.317C295.05 414.861 295.416 415.378 295.96 415.471L304.832 416.986ZM253.184 344.578L304.184 416.578L305.816 415.422L254.816 343.422L253.184 344.578Z" fill="black"/>
</svg>
